<svg width="539" height="386" viewBox="0 0 539 386" fill="none" xmlns="http://www.w3.org/2000/svg">
<path d="M40.2221 344.806C40.2221 344.806 96.2332 290.556 61.5531 254.069C26.873 217.581 7.7439 231.625 7.7439 231.625C7.7439 231.625 63.0669 215.515 59.3512 191.42C55.6355 167.324 21.6435 158.787 21.6435 158.787C21.6435 158.787 80.5446 160.715 94.857 127.118C109.307 93.5221 90.0404 82.2315 90.0404 82.2315C90.0404 82.2315 151.694 108.668 186.099 83.8838C220.504 59.0996 227.66 32.6631 227.66 32.6631C227.66 32.6631 237.293 110.32 293.304 95.8628C349.316 81.4053 372.573 38.9968 372.573 38.9968C372.573 38.9968 353.306 99.8558 402.161 104.675C451.016 109.494 499.734 83.8838 499.734 83.8838C499.734 83.8838 423.768 124.64 456.521 159.889C489.275 195.137 538.955 180.68 538.955 180.68C538.955 180.68 473.311 202.297 478.953 241.539C484.596 280.78 505.376 301.572 505.376 301.572C505.376 301.572 434.915 265.497 402.161 295.926C369.408 326.356 375.738 359.126 375.738 359.126C375.738 359.126 330.875 305.427 290.965 315.891C250.918 326.356 219.816 373.583 219.816 373.583C219.816 373.583 218.99 311.072 158.162 303.912C97.3342 296.89 40.2221 344.806 40.2221 344.806Z" fill="#F8BE2A"/>
<path d="M225.32 342.466C225.32 342.466 223.394 301.847 174.952 290.832C126.51 279.679 63.8927 323.878 63.8927 323.878C63.8927 323.878 90.7285 295.513 79.4437 266.186C68.1589 236.858 30.3136 227.219 30.3136 227.219C30.3136 227.219 55.4979 225.429 63.3422 203.812C71.1866 182.195 0.3125 150.388 0.3125 150.388C0.3125 150.388 95.6828 165.947 107.793 138.409C119.766 110.734 103.527 92.8338 103.527 92.8338C103.527 92.8338 133.528 107.291 171.924 102.472C210.32 97.653 230.137 0.856934 230.137 0.856934C230.137 0.856934 234.954 107.291 284.084 104.4C333.352 101.371 353.031 77.9633 353.031 77.9633C353.031 77.9633 356.609 102.61 393.904 111.56C431.062 120.51 490.513 75.4849 490.513 75.4849C490.513 75.4849 431.75 127.119 441.245 157.686C450.741 188.253 499.458 188.941 499.458 188.941C499.458 188.941 467.118 210.008 468.219 238.234C469.457 266.461 501.247 308.456 501.247 308.456C501.247 308.456 429.685 263.982 398.033 277.889C366.38 291.658 386.886 385.976 386.886 385.976C386.886 385.976 340.508 301.296 292.479 304.326C244.587 307.079 225.32 342.466 225.32 342.466Z" fill="white"/>
</svg>
