<svg width="618" height="725" viewBox="0 0 618 725" fill="none" xmlns="http://www.w3.org/2000/svg">
<path d="M100.562 212.563L1.66608 167.421L88.2664 229.038L100.562 212.563Z" fill="url(#paint0_linear)"/>
<path d="M120.712 556L0.000115102 715.424L134.594 579.349L120.712 556Z" fill="url(#paint1_linear)"/>
<path d="M190.012 576.084L148.502 677.663L195.902 580.582L190.012 576.084Z" fill="url(#paint2_linear)"/>
<path d="M467.986 526.742L507.914 598.995L456.219 534.914L467.986 526.742Z" fill="url(#paint3_linear)"/>
<path d="M454.368 148.872L552.867 51.583L474.596 162.492L454.368 148.872Z" fill="url(#paint4_linear)"/>
<path d="M388.657 100.228L425.016 19.8022L399.102 107.103L388.657 100.228Z" fill="url(#paint5_linear)"/>
<path d="M517.83 296.232L650.177 280.406L517.83 312.317L517.83 296.232Z" fill="url(#paint6_linear)"/>
<path d="M517.83 277.293L592.399 266.916L517.83 288.449L517.83 277.293Z" fill="url(#paint7_linear)"/>
<path d="M192.187 121.761L106.512 0.474117L168.124 131.879L192.187 121.761Z" fill="url(#paint8_linear)"/>
<path d="M313.427 598.995L305.626 724.173L300.734 598.995L313.427 598.995Z" fill="url(#paint9_linear)"/>
<path d="M288.571 600.94L276.936 673.323L278.126 598.995L288.571 600.94Z" fill="url(#paint10_linear)"/>
<defs>
<linearGradient id="paint0_linear" x1="100.562" y1="198.23" x2="1.66608" y2="198.23" gradientUnits="userSpaceOnUse">
<stop stop-color="#00CA5D"/>
<stop offset="1" stop-color="#2BFF8D" stop-opacity="0"/>
</linearGradient>
<linearGradient id="paint1_linear" x1="134.594" y1="635.712" x2="0.000118586" y2="635.712" gradientUnits="userSpaceOnUse">
<stop stop-color="#00CA5D"/>
<stop offset="1" stop-color="#2BFF8D" stop-opacity="0"/>
</linearGradient>
<linearGradient id="paint2_linear" x1="202.986" y1="620.956" x2="140.477" y2="631.922" gradientUnits="userSpaceOnUse">
<stop stop-color="#00CA5D"/>
<stop offset="1" stop-color="#2BFF8D" stop-opacity="0"/>
</linearGradient>
<linearGradient id="paint3_linear" x1="507.914" y1="562.868" x2="456.219" y2="562.868" gradientUnits="userSpaceOnUse">
<stop stop-color="#00CA5D"/>
<stop offset="1" stop-color="#2BFF8D" stop-opacity="0"/>
</linearGradient>
<linearGradient id="paint4_linear" x1="552.867" y1="107.038" x2="454.368" y2="107.038" gradientUnits="userSpaceOnUse">
<stop stop-color="#00CA5D"/>
<stop offset="1" stop-color="#2BFF8D" stop-opacity="0"/>
</linearGradient>
<linearGradient id="paint5_linear" x1="425.016" y1="63.4525" x2="388.657" y2="63.4525" gradientUnits="userSpaceOnUse">
<stop stop-color="#00CA5D"/>
<stop offset="1" stop-color="#2BFF8D" stop-opacity="0"/>
</linearGradient>
<linearGradient id="paint6_linear" x1="650.177" y1="296.362" x2="517.83" y2="296.362" gradientUnits="userSpaceOnUse">
<stop stop-color="#00CA5D"/>
<stop offset="1" stop-color="#2BFF8D" stop-opacity="0"/>
</linearGradient>
<linearGradient id="paint7_linear" x1="592.399" y1="277.682" x2="517.83" y2="277.682" gradientUnits="userSpaceOnUse">
<stop stop-color="#00CA5D"/>
<stop offset="1" stop-color="#2BFF8D" stop-opacity="0"/>
</linearGradient>
<linearGradient id="paint8_linear" x1="192.187" y1="66.1765" x2="106.512" y2="66.1765" gradientUnits="userSpaceOnUse">
<stop stop-color="#00CA5D"/>
<stop offset="1" stop-color="#2BFF8D" stop-opacity="0"/>
</linearGradient>
<linearGradient id="paint9_linear" x1="313.427" y1="661.584" x2="300.734" y2="661.584" gradientUnits="userSpaceOnUse">
<stop stop-color="#00CA5D"/>
<stop offset="1" stop-color="#2BFF8D" stop-opacity="0"/>
</linearGradient>
<linearGradient id="paint10_linear" x1="288.571" y1="636.159" x2="276.936" y2="636.159" gradientUnits="userSpaceOnUse">
<stop stop-color="#00CA5D"/>
<stop offset="1" stop-color="#2BFF8D" stop-opacity="0"/>
</linearGradient>
</defs>
</svg>
