<svg width="633" height="777" viewBox="0 0 633 777" fill="none" xmlns="http://www.w3.org/2000/svg">
<path opacity="0.6" d="M-19.8253 -170.448L131.56 89.1182L-42.3017 -141.78L-19.8253 -170.448Z" fill="url(#paint0_linear)"/>
<path opacity="0.6" d="M283.342 -161.368L291.407 38.3981L269.063 -161.368L283.342 -161.368Z" fill="url(#paint1_linear)"/>
<path opacity="0.6" d="M691.752 50.2026L545.391 195.487L697.966 94.696L691.752 50.2026Z" fill="url(#paint2_linear)"/>
<path opacity="0.6" d="M673.374 1.55811L599.731 99.1063L673.374 20.3673L673.374 1.55811Z" fill="url(#paint3_linear)"/>
<path opacity="0.6" d="M98.6387 506.033L-46.9294 582.697L-46.9294 598.393L98.6387 506.033Z" fill="url(#paint4_linear)"/>
<path opacity="0.6" d="M197.138 713.193L99.564 939.941L126.139 945L197.138 713.193Z" fill="url(#paint5_linear)"/>
<path opacity="0.6" d="M401 718L442.647 892.861L420.832 892.861L401 718Z" fill="url(#paint6_linear)"/>
<path opacity="0.6" d="M552.53 650.41L680.513 784.279L662.4 802.699L552.53 650.41Z" fill="url(#paint7_linear)"/>
<path opacity="0.6" d="M588 639L645.513 688.163L638.374 699.319L588 639Z" fill="url(#paint8_linear)"/>
<path opacity="0.6" d="M562.182 465.95L692.809 506.033L687.785 520.432L562.182 465.95Z" fill="url(#paint9_linear)"/>
<path opacity="0.6" d="M-37.0132 312.882L100.622 341.81L-37.0132 324.427L-37.0132 312.882Z" fill="url(#paint10_linear)"/>
<path opacity="0.6" d="M-34.2366 273.448L25.9209 293.944L-37.0131 280.712L-34.2366 273.448Z" fill="url(#paint11_linear)"/>
<defs>
<linearGradient id="paint0_linear" x1="131.56" y1="-40.665" x2="-42.3017" y2="-40.665" gradientUnits="userSpaceOnUse">
<stop stop-color="#4F62F0"/>
<stop offset="1" stop-color="#EA6F39"/>
</linearGradient>
<linearGradient id="paint1_linear" x1="291.407" y1="-61.485" x2="269.063" y2="-61.485" gradientUnits="userSpaceOnUse">
<stop stop-color="#4F62F0"/>
<stop offset="1" stop-color="#EA6F39"/>
</linearGradient>
<linearGradient id="paint2_linear" x1="697.966" y1="122.845" x2="545.391" y2="122.845" gradientUnits="userSpaceOnUse">
<stop stop-color="#4F62F0"/>
<stop offset="1" stop-color="#EA6F39"/>
</linearGradient>
<linearGradient id="paint3_linear" x1="673.374" y1="50.3322" x2="599.731" y2="50.3322" gradientUnits="userSpaceOnUse">
<stop stop-color="#4F62F0"/>
<stop offset="1" stop-color="#EA6F39"/>
</linearGradient>
<linearGradient id="paint4_linear" x1="98.6387" y1="552.213" x2="-46.9294" y2="552.213" gradientUnits="userSpaceOnUse">
<stop stop-color="#4F62F0"/>
<stop offset="1" stop-color="#EA6F39"/>
</linearGradient>
<linearGradient id="paint5_linear" x1="197.138" y1="829.097" x2="99.5641" y2="829.097" gradientUnits="userSpaceOnUse">
<stop stop-color="#4F62F0"/>
<stop offset="1" stop-color="#EA6F39"/>
</linearGradient>
<linearGradient id="paint6_linear" x1="442.647" y1="805.43" x2="401" y2="805.43" gradientUnits="userSpaceOnUse">
<stop stop-color="#4F62F0"/>
<stop offset="1" stop-color="#EA6F39"/>
</linearGradient>
<linearGradient id="paint7_linear" x1="680.513" y1="726.554" x2="552.53" y2="726.554" gradientUnits="userSpaceOnUse">
<stop stop-color="#4F62F0"/>
<stop offset="1" stop-color="#EA6F39"/>
</linearGradient>
<linearGradient id="paint8_linear" x1="645.513" y1="669.16" x2="588" y2="669.16" gradientUnits="userSpaceOnUse">
<stop stop-color="#EFAE3F"/>
<stop offset="0.359896" stop-color="#EA6F39"/>
</linearGradient>
<linearGradient id="paint9_linear" x1="692.809" y1="493.191" x2="562.182" y2="493.191" gradientUnits="userSpaceOnUse">
<stop stop-color="#4F62F0"/>
<stop offset="1" stop-color="#EA6F39"/>
</linearGradient>
<linearGradient id="paint10_linear" x1="100.622" y1="327.346" x2="-37.0132" y2="327.346" gradientUnits="userSpaceOnUse">
<stop stop-color="#4F62F0"/>
<stop offset="1" stop-color="#EA6F39"/>
</linearGradient>
<linearGradient id="paint11_linear" x1="25.9209" y1="283.696" x2="-37.0131" y2="283.696" gradientUnits="userSpaceOnUse">
<stop stop-color="#4F62F0"/>
<stop offset="1" stop-color="#EA6F39"/>
</linearGradient>
</defs>
</svg>
