<svg width="633" height="777" viewBox="0 0 633 777" fill="none" xmlns="http://www.w3.org/2000/svg">
<path d="M-9.24816 -30.6118L98.6387 119.602L-24.7172 -7.78139L-9.24816 -30.6118Z" fill="url(#paint0_linear)"/>
<path d="M208.905 77.0543L162.895 -80.0347L142.137 -71.9921L208.905 77.0543Z" fill="url(#paint1_linear)"/>
<path d="M97.8711 560L-67.0001 680.898L-60.2571 701.782L97.8711 560Z" fill="url(#paint2_linear)"/>
<path d="M37.8203 575.691L-44.6814 622.39L-42.3016 634.973L37.8203 575.691Z" fill="url(#paint3_linear)"/>
<path d="M186.693 742.769L152.318 887.015L113.447 881.048L186.693 742.769Z" fill="url(#paint4_linear)"/>
<path d="M404 603L506.466 834.288L474.867 839.347L404 603Z" fill="url(#paint5_linear)"/>
<path d="M531.508 499.028L681.571 569.465L674.432 605.397L531.508 499.028Z" fill="url(#paint6_linear)"/>
<path d="M685.67 151.902C685.67 161.501 580.692 232.976 580.692 232.976L685.67 178.624L685.67 151.902Z" fill="url(#paint7_linear)"/>
<path d="M600.788 -121.285L472.408 122.975L625.777 -113.243L600.788 -121.285Z" fill="url(#paint8_linear)"/>
<defs>
<linearGradient id="paint0_linear" x1="98.6387" y1="44.4951" x2="-24.7172" y2="44.4951" gradientUnits="userSpaceOnUse">
<stop stop-color="#F0520E"/>
<stop offset="1" stop-color="#CCFC0E"/>
</linearGradient>
<linearGradient id="paint1_linear" x1="208.905" y1="-1.49019" x2="142.137" y2="-1.49019" gradientUnits="userSpaceOnUse">
<stop stop-color="#F0520E"/>
<stop offset="1" stop-color="#CCFC0E"/>
</linearGradient>
<linearGradient id="paint2_linear" x1="97.8711" y1="630.891" x2="-67.0001" y2="630.891" gradientUnits="userSpaceOnUse">
<stop stop-color="#F0520E"/>
<stop offset="1" stop-color="#CCFC0E"/>
</linearGradient>
<linearGradient id="paint3_linear" x1="37.8203" y1="605.332" x2="-44.6814" y2="605.332" gradientUnits="userSpaceOnUse">
<stop stop-color="#F0520E"/>
<stop offset="1" stop-color="#CCFC0E"/>
</linearGradient>
<linearGradient id="paint4_linear" x1="186.693" y1="814.892" x2="113.447" y2="814.892" gradientUnits="userSpaceOnUse">
<stop stop-color="#F0520E"/>
<stop offset="1" stop-color="#CCFC0E"/>
</linearGradient>
<linearGradient id="paint5_linear" x1="506.466" y1="721.173" x2="404" y2="721.173" gradientUnits="userSpaceOnUse">
<stop stop-color="#F0520E"/>
<stop offset="1" stop-color="#CCFC0E"/>
</linearGradient>
<linearGradient id="paint6_linear" x1="681.571" y1="552.212" x2="531.508" y2="552.212" gradientUnits="userSpaceOnUse">
<stop stop-color="#F0520E"/>
<stop offset="1" stop-color="#CCFC0E"/>
</linearGradient>
<linearGradient id="paint7_linear" x1="685.67" y1="192.439" x2="580.692" y2="192.439" gradientUnits="userSpaceOnUse">
<stop stop-color="#F0520E"/>
<stop offset="1" stop-color="#CCFC0E"/>
</linearGradient>
<linearGradient id="paint8_linear" x1="625.777" y1="0.844681" x2="472.408" y2="0.844674" gradientUnits="userSpaceOnUse">
<stop stop-color="#F0520E"/>
<stop offset="1" stop-color="#CCFC0E"/>
</linearGradient>
</defs>
</svg>
