<svg width="633" height="777" viewBox="0 0 633 777" fill="none" xmlns="http://www.w3.org/2000/svg">
<path opacity="0.75" d="M-81.9661 443.119L140.286 411.208L-81.9661 464.782L-81.9661 443.119Z" fill="url(#paint0_linear)"/>
<path opacity="0.75" d="M-51.2923 744.455L152.318 545.467L-37.0132 776.107L-51.2923 744.455Z" fill="url(#paint1_linear)"/>
<path opacity="0.75" d="M-24.7172 839.15L98.6387 690.233L-9.24817 861.98L-24.7172 839.15Z" fill="url(#paint2_linear)"/>
<path opacity="0.75" d="M267.873 678.818L246.586 897.134L217.102 901.155L267.873 678.818Z" fill="url(#paint3_linear)"/>
<path opacity="0.75" d="M471.218 634.843L638.602 878.973L593.517 901.155L471.218 634.843Z" fill="url(#paint4_linear)"/>
<path opacity="0.75" d="M554.91 703.205L662.4 839.149L662.4 851.862L554.91 703.205Z" fill="url(#paint5_linear)"/>
<path opacity="0.75" d="M544.597 379.947L675.489 377.223L675.489 395.383L544.597 379.947Z" fill="url(#paint6_linear)"/>
<path opacity="0.75" d="M431.157 -137.111L365.447 133.611L403.128 -144.375L431.157 -137.111Z" fill="url(#paint7_linear)"/>
<path opacity="0.75" d="M475.846 -139.316L420.712 49.4243L489.596 -135.295L475.846 -139.316Z" fill="url(#paint8_linear)"/>
<path opacity="0.75" d="M-40.7153 49.4243L123.495 217.15L-34.8978 105.722L-40.7153 49.4243Z" fill="url(#paint9_linear)"/>
<path opacity="0.75" d="M-24.7174 133.611L35.0435 176.418L-24.7174 148.918L-24.7174 133.611Z" fill="url(#paint10_linear)"/>
<path opacity="0.75" d="M235.745 -144.375C237.331 -140.354 254.519 8.30354 254.519 8.30354L217.896 -139.316L235.745 -144.375Z" fill="url(#paint11_linear)"/>
<path opacity="0.75" d="M662.4 -121.285L543.936 68.6225L675.489 -91.0608L662.4 -121.285Z" fill="url(#paint12_linear)"/>
<defs>
<linearGradient id="paint0_linear" x1="140.286" y1="437.995" x2="-81.9661" y2="437.995" gradientUnits="userSpaceOnUse">
<stop stop-color="#4F5CF0"/>
<stop offset="1" stop-color="#2AD3F8"/>
</linearGradient>
<linearGradient id="paint1_linear" x1="152.318" y1="660.787" x2="-51.2923" y2="660.787" gradientUnits="userSpaceOnUse">
<stop stop-color="#4F5CF0"/>
<stop offset="1" stop-color="#2AD3F8"/>
</linearGradient>
<linearGradient id="paint2_linear" x1="98.6387" y1="776.107" x2="-24.7172" y2="776.107" gradientUnits="userSpaceOnUse">
<stop stop-color="#4F5CF0"/>
<stop offset="1" stop-color="#2AD3F8"/>
</linearGradient>
<linearGradient id="paint3_linear" x1="267.873" y1="789.986" x2="217.103" y2="789.986" gradientUnits="userSpaceOnUse">
<stop stop-color="#4F5CF0"/>
<stop offset="1" stop-color="#2AD3F8"/>
</linearGradient>
<linearGradient id="paint4_linear" x1="638.602" y1="767.999" x2="471.218" y2="767.999" gradientUnits="userSpaceOnUse">
<stop stop-color="#4F5CF0"/>
<stop offset="1" stop-color="#2AD3F8"/>
</linearGradient>
<linearGradient id="paint5_linear" x1="662.4" y1="777.533" x2="554.91" y2="777.533" gradientUnits="userSpaceOnUse">
<stop stop-color="#4F5CF0"/>
<stop offset="1" stop-color="#2AD3F8"/>
</linearGradient>
<linearGradient id="paint6_linear" x1="675.489" y1="386.303" x2="544.597" y2="386.303" gradientUnits="userSpaceOnUse">
<stop stop-color="#4F5CF0"/>
<stop offset="1" stop-color="#2AD3F8"/>
</linearGradient>
<linearGradient id="paint7_linear" x1="431.157" y1="-5.38177" x2="365.447" y2="-5.38178" gradientUnits="userSpaceOnUse">
<stop stop-color="#4F5CF0"/>
<stop offset="1" stop-color="#2AD3F8"/>
</linearGradient>
<linearGradient id="paint8_linear" x1="489.596" y1="-44.9458" x2="420.712" y2="-44.9458" gradientUnits="userSpaceOnUse">
<stop stop-color="#4F5CF0"/>
<stop offset="1" stop-color="#2AD3F8"/>
</linearGradient>
<linearGradient id="paint9_linear" x1="123.495" y1="133.287" x2="-40.7153" y2="133.287" gradientUnits="userSpaceOnUse">
<stop stop-color="#4F5CF0"/>
<stop offset="1" stop-color="#2AD3F8"/>
</linearGradient>
<linearGradient id="paint10_linear" x1="35.0435" y1="155.015" x2="-24.7173" y2="155.015" gradientUnits="userSpaceOnUse">
<stop stop-color="#4F5CF0"/>
<stop offset="1" stop-color="#2AD3F8"/>
</linearGradient>
<linearGradient id="paint11_linear" x1="254.519" y1="-68.0357" x2="217.896" y2="-68.0357" gradientUnits="userSpaceOnUse">
<stop stop-color="#4F5CF0"/>
<stop offset="1" stop-color="#2AD3F8"/>
</linearGradient>
<linearGradient id="paint12_linear" x1="675.489" y1="-26.3313" x2="543.936" y2="-26.3313" gradientUnits="userSpaceOnUse">
<stop stop-color="#4F5CF0"/>
<stop offset="1" stop-color="#2AD3F8"/>
</linearGradient>
</defs>
</svg>
