<svg width="48" height="35" viewBox="0 0 48 35" fill="none" xmlns="http://www.w3.org/2000/svg">
<path fill-rule="evenodd" clip-rule="evenodd" d="M0 3.67946C0 1.64735 1.64865 0 3.67869 0H44.216C46.2477 0 47.8947 1.64118 47.8947 3.67946V31.3205C47.8947 33.3526 46.2461 35 44.216 35H3.67869C1.64701 35 0 33.3588 0 31.3205V3.67946ZM3.68421 5.5401C3.68421 4.51512 4.49374 3.68421 5.53085 3.68421H42.3639C43.3838 3.68421 44.2105 4.51117 44.2105 5.5401V29.4599C44.2105 30.4849 43.401 31.3158 42.3639 31.3158H5.53085C4.51098 31.3158 3.68421 30.4888 3.68421 29.4599V5.5401ZM9.21053 11.0523C9.21053 10.0351 10.0499 9.21053 11.0442 9.21053H25.7979C26.8106 9.21053 27.6316 10.0279 27.6316 11.0523V16.5793C27.6316 17.5965 26.7922 18.4211 25.7979 18.4211H11.0442C10.0315 18.4211 9.21053 17.6037 9.21053 16.5793V11.0523ZM9.21053 21.1842C9.21053 20.6755 9.62989 20.2632 10.1494 20.2632H26.6927C27.2112 20.2632 27.6316 20.6904 27.6316 21.1842C27.6316 21.6929 27.2122 22.1053 26.6927 22.1053H10.1494C9.63086 22.1053 9.21053 21.678 9.21053 21.1842ZM9.21053 24.8684C9.21053 24.3597 9.62989 23.9474 10.1494 23.9474H26.6927C27.2112 23.9474 27.6316 24.3746 27.6316 24.8684C27.6316 25.3771 27.2122 25.7895 26.6927 25.7895H10.1494C9.63086 25.7895 9.21053 25.3622 9.21053 24.8684ZM33.1579 18.4207C33.1579 17.4035 33.9733 16.5789 34.9981 16.5789H36.844C37.8603 16.5789 38.6842 17.3963 38.6842 18.4207V23.9477C38.6842 24.9649 37.8688 25.7895 36.844 25.7895H34.9981C33.9818 25.7895 33.1579 24.9721 33.1579 23.9477V18.4207ZM33.1579 11.9737C33.1579 10.4476 34.3844 9.21053 35.9211 9.21053C37.4471 9.21053 38.6842 10.437 38.6842 11.9737C38.6842 13.4997 37.4577 14.7368 35.9211 14.7368C34.395 14.7368 33.1579 13.5104 33.1579 11.9737Z" fill="#898989"/>
</svg>
